<svg version="1.1" id="Layer_1" xmlns="http://www.w3.org/2000/svg" xmlns:xlink="http://www.w3.org/1999/xlink" x="0px" y="0px"
	 width="100%" viewBox="0 0 96 96" enable-background="new 0 0 96 96" xml:space="preserve">
<path fill="#FBFDFD" opacity="1.000000" stroke="none" 
	d="
M64.000000,97.000000 
	C42.666672,97.000000 21.833342,97.000000 1.000008,97.000000 
	C1.000006,65.000008 1.000006,33.000019 1.000003,1.000021 
	C32.999985,1.000014 64.999969,1.000014 96.999969,1.000007 
	C96.999977,32.999981 96.999977,64.999962 96.999985,96.999969 
	C86.166664,97.000000 75.333336,97.000000 64.000000,97.000000 
M60.694782,17.453865 
	C60.360451,17.342739 60.026119,17.231615 59.216434,16.904863 
	C58.951916,16.679785 58.687397,16.454704 58.665443,15.482407 
	C58.559902,14.979195 58.454365,14.475983 58.630573,13.703719 
	C58.630573,13.703719 58.847832,13.380345 58.860085,12.860258 
	C58.670227,12.581366 58.480370,12.302472 58.004601,11.456926 
	C57.728249,11.147120 57.451897,10.837312 56.820415,10.047261 
	C55.875584,9.043508 54.930752,8.039753 53.989834,6.276284 
	C52.951946,1.786049 50.807995,1.950641 47.363323,5.005418 
	C46.920135,5.035084 46.476948,5.064749 45.714394,4.613986 
	C45.142406,5.060033 44.570419,5.506079 43.546467,6.373255 
	C42.445026,7.288676 41.343590,8.204097 39.560928,9.120500 
	C37.976974,10.136583 35.932041,11.051306 38.817730,13.753246 
	C38.514019,14.825937 38.210308,15.898628 37.547470,17.079130 
	C37.312286,17.192804 37.140427,17.368439 36.614754,17.927372 
	C36.443329,17.965063 36.271904,18.002752 35.651154,18.134390 
	C35.357704,18.266380 35.146652,18.479843 34.661755,19.035877 
	C34.661755,19.035877 34.223530,19.090975 33.722492,19.161690 
	C33.487041,19.392124 33.251587,19.622561 32.617783,20.186165 
	C32.454033,20.242304 32.290283,20.298441 31.721233,19.711195 
	C28.452429,19.706026 25.450418,14.814092 21.259817,19.209700 
	C11.510243,26.313219 11.182640,30.287359 19.725492,37.822472 
	C21.777039,39.632011 21.688427,46.955006 19.350716,48.335934 
	C14.738780,51.060287 13.730555,55.230114 13.497679,60.484501 
	C11.905880,61.534191 10.314081,62.583878 9.044532,63.765041 
	C9.044532,63.765041 8.735353,63.604580 8.089779,63.732498 
	C7.022917,64.460594 5.956056,65.188683 4.992652,65.974640 
	C4.992652,65.974640 4.914790,65.885254 4.255232,66.119064 
	C4.141292,67.363243 4.027351,68.607422 3.913412,69.851601 
	C5.734896,69.378357 7.556381,68.905106 9.379692,68.498627 
	C9.379692,68.498627 9.445609,68.509445 10.036312,68.388596 
	C10.692124,67.924538 11.347937,67.460487 11.999657,66.999207 
	C11.999657,66.999207 11.994675,67.000168 12.631086,66.966705 
	C13.467527,66.349960 14.303968,65.733215 15.062019,65.072456 
	C15.062019,65.072456 15.059461,65.162323 15.798860,65.117722 
	C16.535078,65.076408 17.271296,65.035088 18.000193,65.000000 
	C18.000193,65.000000 18.003469,64.991547 18.317402,65.502312 
	C18.864609,65.710060 19.411818,65.917809 19.977345,66.040497 
	C19.977345,66.040497 19.899864,66.080093 20.399879,66.718102 
	C23.377716,66.197144 26.355553,65.676186 29.909220,65.090866 
	C30.284002,64.997787 30.658783,64.904709 31.486292,65.024696 
	C31.652962,65.030930 31.819633,65.037155 31.990992,64.994202 
	C31.990992,64.994202 31.953760,65.026726 32.353195,65.545586 
	C33.512672,66.144318 34.672150,66.743042 36.214050,67.814987 
	C37.149391,68.546707 38.084736,69.278435 38.832985,70.796989 
	C39.984100,73.423126 40.435783,77.119957 42.445011,78.432480 
	C45.720974,80.572487 46.285515,82.968109 46.025196,86.260391 
	C45.920788,87.580841 45.666527,89.024361 46.065643,90.215851 
	C46.574089,91.733719 47.675888,93.052826 48.521908,94.457619 
	C49.389889,93.131172 50.844677,91.871979 51.005974,90.464546 
	C51.362263,87.355614 51.067375,84.172050 50.995575,81.011444 
	C50.995575,81.011444 51.031796,81.037552 51.536972,80.679329 
	C52.376797,80.130043 53.216621,79.580750 54.007603,78.997192 
	C54.007603,78.997192 54.022758,79.054893 54.639065,78.968880 
	C55.131153,78.338013 55.623241,77.707146 56.030170,77.005066 
	C56.030170,77.005066 56.081150,77.103676 56.734749,76.794968 
	C57.398415,75.125809 58.242092,73.503395 58.690155,71.778244 
	C59.794048,67.527962 64.626915,64.683342 69.082039,65.968163 
	C69.082039,65.968163 69.207588,65.923203 69.742531,66.486176 
	C74.281334,68.038170 78.380005,67.224800 81.318542,63.433308 
	C83.758003,60.285759 84.534187,56.624756 81.994659,52.990589 
	C81.994659,52.990589 82.049110,52.981449 81.956863,52.296429 
	C80.976639,51.483360 79.996414,50.670292 78.461174,49.632675 
	C77.406281,48.387909 76.351395,47.143143 75.485992,45.294743 
	C75.656891,44.524666 75.827789,43.754589 76.023453,42.218166 
	C76.019066,41.486954 76.014687,40.755745 76.089554,39.432755 
	C76.978439,38.343170 77.829552,37.219860 78.765106,36.171940 
	C80.148003,34.622936 82.806480,33.113728 82.789452,31.611740 
	C82.728683,26.250444 86.515152,24.424467 90.641045,22.016245 
	C90.927582,21.732702 91.214119,21.449160 91.770576,21.174515 
	C91.770576,21.174515 91.949310,20.972055 92.664787,20.799549 
	C92.928734,19.531569 93.192688,18.263588 93.456635,16.995607 
	C92.114365,16.952599 90.690948,16.612743 89.452942,16.951147 
	C88.246094,17.281034 87.228836,18.304520 85.501038,19.176693 
	C85.342247,19.322014 85.183464,19.467335 84.503693,19.687561 
	C83.949295,20.101971 83.394890,20.516378 82.066277,21.036505 
	C81.050652,20.994617 80.035027,20.952728 79.019493,20.986416 
	C79.019493,20.986416 79.079773,20.940834 78.759575,20.368452 
	C78.151215,20.157753 77.542854,19.947056 76.780334,19.668468 
	C76.780334,19.668468 76.641739,19.764200 76.137894,19.218786 
	C75.419930,19.047510 74.701965,18.876234 73.790375,18.446173 
	C73.457878,18.279518 73.199249,18.370617 72.303833,18.902431 
	C71.572472,18.947971 70.841110,18.993513 69.661880,19.121763 
	C69.367233,19.244377 69.151848,19.450005 68.634178,19.999567 
	C68.634178,19.999567 68.177940,20.073774 67.270164,20.172112 
	C66.982925,20.272751 66.695679,20.373390 65.750984,20.688789 
	C65.157738,20.350815 64.564491,20.012838 63.735699,19.330097 
	C63.524483,19.127352 63.272625,19.019304 62.388294,18.942423 
	C62.005955,18.843176 61.623615,18.743929 61.239609,18.777214 
	C61.239609,18.777214 61.341362,18.692284 61.240101,18.264481 
	C61.240101,18.264481 61.022720,17.882362 60.694782,17.453865 
z"/>
<path fill="#3352E5" opacity="1.000000" stroke="none" 
	d="
M31.033564,64.811623 
	C30.658783,64.904709 30.284002,64.997787 29.193851,65.109489 
	C25.618944,65.445435 22.759405,65.762764 19.899864,66.080093 
	C19.899864,66.080093 19.977345,66.040497 19.832842,65.806641 
	C19.126717,65.379036 18.565092,65.185295 18.003469,64.991547 
	C18.003469,64.991547 18.000193,65.000000 17.814495,64.744141 
	C16.772352,64.712967 15.915907,64.937645 15.059462,65.162323 
	C15.059461,65.162323 15.062019,65.072456 14.766749,65.072159 
	C13.645878,65.714630 12.820276,66.357399 11.994675,67.000168 
	C11.994675,67.000168 11.999657,66.999207 11.643268,66.990715 
	C10.673122,67.491295 10.059366,68.000374 9.445609,68.509445 
	C9.445609,68.509445 9.379692,68.498627 8.998284,68.432884 
	C6.098811,69.455170 4.837351,68.668793 4.914790,65.885254 
	C4.914790,65.885254 4.992652,65.974640 5.294891,65.952576 
	C6.643205,65.155212 7.689280,64.379898 8.735353,63.604584 
	C8.735353,63.604580 9.044532,63.765041 9.258381,63.810814 
	C10.979878,62.596176 12.487528,61.335770 13.995176,60.075363 
	C13.730555,55.230114 14.738780,51.060287 19.350716,48.335934 
	C21.688427,46.955006 21.777039,39.632011 19.725492,37.822472 
	C11.182640,30.287359 11.510243,26.313219 21.839163,19.485275 
	C24.919281,20.491032 27.420053,21.221214 30.314009,21.966789 
	C32.810318,21.991657 34.913441,22.001135 37.045090,22.372696 
	C37.111435,22.974028 37.149258,23.213274 37.032223,23.642281 
	C36.408508,23.932961 35.939648,24.033876 35.167717,24.182083 
	C34.585926,24.512524 34.307213,24.795675 34.025932,25.041943 
	C34.023373,25.005056 34.082306,25.049726 33.736050,25.080742 
	C32.604984,28.402058 31.820177,31.692360 31.032021,35.004555 
	C31.028673,35.026443 30.985638,35.036911 30.617817,35.024284 
	C28.825842,36.338375 27.401688,37.665096 26.008030,39.356007 
	C25.572794,43.225754 24.132267,46.509315 28.755684,49.165661 
	C31.230293,50.587425 32.285820,54.609638 33.771008,57.564247 
	C34.445770,58.906609 34.608932,60.506145 35.193977,62.262917 
	C36.615765,63.002590 37.847740,63.468365 39.048092,63.961563 
	C39.016468,63.988995 39.034466,63.907227 39.182358,64.179398 
	C39.896622,64.679047 40.462990,64.906517 40.858490,65.347488 
	C40.437351,67.047447 40.187084,68.533913 39.707664,70.014839 
	C39.478512,70.009308 39.020077,70.010155 39.020077,70.010155 
	C38.084736,69.278435 37.149391,68.546707 36.025814,67.192505 
	C34.542973,66.055595 33.248367,65.541161 31.953760,65.026726 
	C31.953760,65.026726 31.990992,64.994202 31.930906,64.847595 
	C31.591736,64.737869 31.312649,64.774742 31.033564,64.811623 
M19.624327,56.023453 
	C20.025995,58.350082 19.598671,61.576241 23.298025,61.109169 
	C24.845348,60.913807 26.740650,59.476410 27.445164,58.082012 
	C27.877625,57.226070 26.463367,54.280846 25.686611,54.203663 
	C23.904587,54.026596 22.005100,55.031624 19.624327,56.023453 
M25.750753,25.340527 
	C23.861357,26.056702 21.792152,26.524229 20.211473,27.667307 
	C19.825750,27.946245 20.626982,30.996788 21.642801,31.756926 
	C22.605536,32.477348 24.957436,32.437931 26.006081,31.720585 
	C28.246469,30.188005 28.368961,27.926184 25.750753,25.340527 
z"/>
<path fill="#2C4EEC" opacity="1.000000" stroke="none" 
	d="
M39.936817,70.020370 
	C40.187084,68.533913 40.437351,67.047447 41.171646,65.271606 
	C41.961563,64.508675 42.267460,64.035141 42.621414,63.561920 
	C42.669476,63.562233 42.620865,63.479313 43.041748,63.640396 
	C47.784740,63.365234 52.168060,62.200710 56.040630,65.635185 
	C56.322403,65.885086 58.603474,63.880657 59.975121,62.959938 
	C59.995232,62.995541 59.929588,62.946770 60.248886,62.952881 
	C61.019901,62.577023 61.471619,62.195053 61.927643,61.864037 
	C61.931950,61.914989 61.832577,61.890820 62.089119,61.850288 
	C62.573875,61.560276 62.802090,61.310799 63.028191,61.027962 
	C63.026077,60.994602 63.069359,61.045551 63.446224,60.990379 
	C65.513290,56.906647 67.203499,52.878094 68.948189,48.892502 
	C69.002678,48.935459 68.873215,48.885509 69.198441,48.912357 
	C69.998817,48.568008 70.473984,48.196815 71.000839,47.614719 
	C71.052528,47.403816 71.267654,47.026546 71.562088,46.968555 
	C72.236954,46.271420 72.617386,45.632278 73.284088,45.115341 
	C74.145744,45.457821 74.721123,45.678097 75.296501,45.898373 
	C76.351395,47.143143 77.406281,48.387909 78.762161,50.098846 
	C80.058464,51.370491 81.053787,52.175968 82.049110,52.981449 
	C82.049110,52.981449 81.994659,52.990589 81.991241,53.398926 
	C82.015610,62.486263 78.143333,66.157272 69.207588,65.923203 
	C69.207588,65.923203 69.082039,65.968163 68.971970,65.546448 
	C67.057640,64.884720 65.031921,63.996933 63.489914,64.524071 
	C58.527451,66.220505 56.047504,70.814690 56.081150,77.103676 
	C56.081150,77.103676 56.030170,77.005066 55.733982,77.044983 
	C54.966118,77.741570 54.494438,78.398232 54.022758,79.054893 
	C54.022758,79.054893 54.007603,78.997192 53.670170,78.992805 
	C52.565758,79.671463 51.798779,80.354507 51.031799,81.037552 
	C51.031796,81.037552 50.995575,81.011444 50.725143,81.267906 
	C50.131401,83.500069 49.808083,85.475769 49.674343,86.293030 
	C47.153111,82.760674 44.296478,78.987915 41.722359,75.031357 
	C40.781830,73.585716 40.512405,71.703445 39.936817,70.020370 
M76.363777,60.750458 
	C76.538322,60.444096 76.712860,60.137730 76.924744,59.926998 
	C76.924744,59.926998 76.822327,59.934090 77.475372,59.486832 
	C77.011475,57.196220 76.547569,54.905613 76.083672,52.615005 
	C74.394318,53.098595 72.704971,53.582184 70.790977,54.467522 
	C70.599098,54.717964 70.356255,54.900684 69.372841,55.112137 
	C67.359947,56.671890 67.288956,58.005684 70.083237,59.624626 
	C71.394302,60.190842 72.705360,60.757053 74.399925,61.673992 
	C74.899246,61.387962 75.398560,61.101929 75.923637,60.905693 
	C75.923637,60.905693 75.832237,60.886402 76.363777,60.750458 
M44.032177,72.116508 
	C45.670879,73.920868 46.940693,77.278107 50.020943,75.069084 
	C51.548916,73.973289 52.342846,71.404747 52.660065,69.376022 
	C52.742516,68.848717 49.484505,66.906013 48.297325,67.286682 
	C46.600151,67.830856 45.396790,69.915100 44.032177,72.116508 
z"/>
<path fill="#3352E6" opacity="1.000000" stroke="none" 
	d="
M75.391251,45.596558 
	C74.721123,45.678097 74.145744,45.457821 73.280113,44.787331 
	C72.449898,43.549606 71.909927,42.762093 71.275993,41.605747 
	C71.094261,40.225899 71.006493,39.214874 70.766739,37.908348 
	C70.207336,37.463505 69.799927,37.314167 69.293640,37.207016 
	C69.194756,37.249203 69.036873,37.103256 68.891724,36.855705 
	C68.391815,36.517529 68.037056,36.426907 67.833458,36.320587 
	C67.984627,36.304890 67.688049,36.372074 67.681412,35.992592 
	C66.501793,32.358265 65.328812,29.103418 64.082672,25.551392 
	C63.660660,24.519169 63.311813,23.784126 62.981567,22.771221 
	C63.013626,22.308191 63.027077,22.123022 63.439079,21.954350 
	C65.930092,21.355759 68.022560,20.740669 70.570236,20.084850 
	C72.897545,19.950811 74.769638,19.857506 76.641739,19.764200 
	C76.641739,19.764200 76.780334,19.668468 77.012444,20.002945 
	C77.856293,20.538559 78.468033,20.739697 79.079773,20.940834 
	C79.079773,20.940834 79.019493,20.986416 79.227959,21.241566 
	C80.968407,21.339249 82.500397,21.181784 84.230255,20.909586 
	C84.626976,20.400787 84.825821,20.006721 85.024673,19.612656 
	C85.183464,19.467335 85.342247,19.322014 86.191216,19.108652 
	C88.370659,20.209309 92.070572,15.577500 91.949310,20.972055 
	C91.949310,20.972055 91.770576,21.174515 91.317734,21.204113 
	C90.588722,21.537405 90.312546,21.841097 90.036377,22.144791 
	C86.515152,24.424467 82.728683,26.250444 82.789452,31.611740 
	C82.806480,33.113728 80.148003,34.622936 78.765106,36.171940 
	C77.829552,37.219860 76.978439,38.343170 75.716843,39.772507 
	C75.562309,41.069675 75.780495,42.027092 75.998680,42.984512 
	C75.827789,43.754589 75.656891,44.524666 75.391251,45.596558 
M75.521576,32.075451 
	C75.797951,30.087574 76.374146,28.062263 76.134003,26.138874 
	C76.075996,25.674316 73.012695,24.908297 71.890083,25.446415 
	C70.799026,25.969408 69.542755,28.835022 69.893051,29.200113 
	C71.221413,30.584602 73.171928,31.372164 75.521576,32.075451 
z"/>
<path fill="#3655E3" opacity="1.000000" stroke="none" 
	d="
M63.040527,21.937853 
	C63.027077,22.123022 63.013626,22.308191 62.597939,22.758305 
	C61.426220,23.045879 60.656731,23.068514 59.925148,23.062916 
	C59.963047,23.034685 59.946320,23.127712 59.824043,22.876190 
	C59.356758,22.550770 59.011757,22.476875 58.813259,22.246017 
	C58.959766,22.089054 58.694080,22.426435 58.628815,22.077759 
	C57.409306,21.900757 56.255054,22.072433 55.097755,22.177990 
	C55.094700,22.111872 55.221561,22.149693 54.954380,22.200954 
	C54.471222,22.530602 54.255245,22.808989 54.025700,23.047482 
	C54.012131,23.007591 54.076702,23.061743 53.671597,23.037792 
	C49.995094,23.072514 46.723694,23.131186 43.309685,23.173058 
	C43.167068,23.156256 43.017433,22.911121 42.943920,22.561291 
	C40.919128,22.144510 38.967846,22.077560 37.016567,22.010611 
	C34.913441,22.001135 32.810318,21.991657 30.496655,21.755589 
	C30.899591,21.137524 31.513062,20.746052 32.126534,20.354580 
	C32.290283,20.298441 32.454033,20.242304 33.073200,20.000164 
	C33.760254,19.573099 33.991894,19.332037 34.223530,19.090975 
	C34.223530,19.090975 34.661755,19.035877 35.082291,18.897873 
	C35.835003,18.630529 36.034222,18.390720 36.100479,18.040442 
	C36.271904,18.002752 36.443329,17.965063 37.026321,17.765066 
	C37.704372,17.474150 37.860607,17.263670 37.906601,16.971319 
	C38.210308,15.898628 38.514019,14.825937 38.902557,13.067968 
	C39.405643,11.294968 39.823898,10.207244 40.242153,9.119519 
	C41.343590,8.204097 42.445026,7.288676 44.069527,6.178331 
	C45.072979,5.687076 45.553371,5.390746 46.033760,5.094415 
	C46.476948,5.064749 46.920135,5.035084 48.049728,5.004911 
	C50.486065,5.681603 52.235992,6.358801 53.985920,7.035999 
	C54.930752,8.039753 55.875584,9.043508 56.948174,10.635300 
	C57.500229,12.139816 57.924526,13.056293 58.348824,13.972771 
	C58.454365,14.475983 58.559902,14.979195 58.434471,16.073484 
	C58.772236,17.149426 59.340977,17.634289 60.098721,18.319101 
	C60.638935,18.576796 60.990150,18.634541 61.341362,18.692284 
	C61.341362,18.692284 61.239609,18.777214 61.285667,19.020542 
	C61.860268,19.537123 62.388809,19.810375 62.943546,20.392666 
	C62.993340,21.113754 63.016933,21.525805 63.040527,21.937853 
M47.668251,11.190618 
	C46.779675,12.880058 45.511932,14.503001 45.197968,16.293219 
	C45.080185,16.964796 47.118965,18.621838 48.284740,18.739729 
	C49.440132,18.856571 51.339714,17.908424 51.856853,16.890743 
	C53.572128,13.515252 51.773415,11.727654 47.668251,11.190618 
z"/>
<path fill="#435CCE" opacity="1.000000" stroke="none" 
	d="
M39.707664,70.014839 
	C40.512405,71.703445 40.781830,73.585716 41.722359,75.031357 
	C44.296478,78.987915 47.153111,82.760674 49.674343,86.293030 
	C49.808083,85.475769 50.131401,83.500069 50.746429,81.271652 
	C51.067375,84.172050 51.362263,87.355614 51.005974,90.464546 
	C50.844677,91.871979 49.389889,93.131172 48.521908,94.457619 
	C47.675888,93.052826 46.574089,91.733719 46.065643,90.215851 
	C45.666527,89.024361 45.920788,87.580841 46.025196,86.260391 
	C46.285515,82.968109 45.720974,80.572487 42.445011,78.432480 
	C40.435783,77.119957 39.984100,73.423126 38.926529,70.403572 
	C39.020077,70.010155 39.478512,70.009308 39.707664,70.014839 
z"/>
<path fill="#405ACE" opacity="1.000000" stroke="none" 
	d="
M69.475060,66.204689 
	C78.143333,66.157272 82.015610,62.486263 82.007507,53.376617 
	C84.534187,56.624756 83.758003,60.285759 81.318542,63.433308 
	C78.380005,67.224800 74.281334,68.038170 69.475060,66.204689 
z"/>
<path fill="#435CCE" opacity="1.000000" stroke="none" 
	d="
M56.407951,76.949326 
	C56.047504,70.814690 58.527451,66.220505 63.489914,64.524071 
	C65.031921,63.996933 67.057640,64.884720 68.959297,65.480988 
	C64.626915,64.683342 59.794048,67.527962 58.690155,71.778244 
	C58.242092,73.503395 57.398415,75.125809 56.407951,76.949326 
z"/>
<path fill="#E8F3FE" opacity="1.000000" stroke="none" 
	d="
M31.923883,20.032887 
	C31.513062,20.746052 30.899591,21.137524 30.103474,21.740196 
	C27.420053,21.221214 24.919281,20.491032 22.180813,19.469101 
	C25.450418,14.814092 28.452429,19.706026 31.923883,20.032887 
z"/>
<path fill="#4E63C6" opacity="1.000000" stroke="none" 
	d="
M92.307053,20.885803 
	C92.070572,15.577500 88.370659,20.209309 86.504868,19.032051 
	C87.228836,18.304520 88.246094,17.281034 89.452942,16.951147 
	C90.690948,16.612743 92.114365,16.952599 93.456635,16.995609 
	C93.192688,18.263588 92.928734,19.531569 92.307053,20.885803 
z"/>
<path fill="#465FCF" opacity="1.000000" stroke="none" 
	d="
M4.585011,66.002159 
	C4.837351,68.668793 6.098811,69.455170 8.997372,68.399498 
	C7.556381,68.905106 5.734896,69.378357 3.913411,69.851601 
	C4.027351,68.607422 4.141292,67.363243 4.585011,66.002159 
z"/>
<path fill="#E8F2FE" opacity="1.000000" stroke="none" 
	d="
M53.987877,6.656142 
	C52.235992,6.358801 50.486065,5.681603 48.374458,4.930220 
	C50.807995,1.950641 52.951946,1.786049 53.987877,6.656142 
z"/>
<path fill="#455FD2" opacity="1.000000" stroke="none" 
	d="
M63.439079,21.954350 
	C63.016933,21.525805 62.993340,21.113754 63.021217,20.311520 
	C63.072685,19.921335 63.227295,19.758343 63.414543,19.748699 
	C63.601791,19.739054 63.971249,19.674864 63.971249,19.674864 
	C64.564491,20.012838 65.157738,20.350815 66.276810,20.781174 
	C67.261078,20.606962 67.719505,20.340368 68.177940,20.073774 
	C68.177940,20.073774 68.634178,19.999567 69.031998,19.909885 
	C69.429810,19.820204 69.851234,19.841967 69.917557,19.912521 
	C69.983879,19.983074 70.115021,20.125582 70.115021,20.125582 
	C68.022560,20.740669 65.930092,21.355759 63.439079,21.954350 
z"/>
<path fill="#465FCF" opacity="1.000000" stroke="none" 
	d="
M13.746428,60.279930 
	C12.487528,61.335770 10.979878,62.596176 9.097257,63.745075 
	C10.314081,62.583878 11.905880,61.534191 13.746428,60.279930 
z"/>
<path fill="#465FCF" opacity="1.000000" stroke="none" 
	d="
M20.149872,66.399094 
	C22.759405,65.762764 25.618944,65.445435 28.905937,65.141670 
	C26.355553,65.676186 23.377716,66.197144 20.149872,66.399094 
z"/>
<path fill="#E8F3FE" opacity="1.000000" stroke="none" 
	d="
M39.901543,9.120010 
	C39.823898,10.207244 39.405643,11.294968 38.844906,12.703765 
	C35.932041,11.051306 37.976974,10.136583 39.901543,9.120010 
z"/>
<path fill="#405ACE" opacity="1.000000" stroke="none" 
	d="
M82.002991,52.638939 
	C81.053787,52.175968 80.058464,51.370491 79.039665,50.211121 
	C79.996414,50.670292 80.976639,51.483360 82.002991,52.638939 
z"/>
<path fill="#455FD2" opacity="1.000000" stroke="none" 
	d="
M76.389816,19.491493 
	C74.769638,19.857506 72.897545,19.950811 70.570236,20.084850 
	C70.115021,20.125582 69.983879,19.983074 69.981293,19.711517 
	C69.978699,19.439962 70.109749,19.039053 70.109749,19.039053 
	C70.841110,18.993513 71.572472,18.947971 72.902344,18.860241 
	C73.500854,18.818048 73.984001,18.704958 73.984001,18.704958 
	C74.701965,18.876234 75.419930,19.047510 76.389816,19.491493 
z"/>
<path fill="#465FCF" opacity="1.000000" stroke="none" 
	d="
M32.153477,65.286156 
	C33.248367,65.541161 34.542973,66.055595 35.834602,66.955902 
	C34.672150,66.743042 33.512672,66.144318 32.153477,65.286156 
z"/>
<path fill="#405BD5" opacity="1.000000" stroke="none" 
	d="
M76.011063,42.601341 
	C75.780495,42.027092 75.562309,41.069675 75.677216,40.068394 
	C76.014687,40.755745 76.019066,41.486954 76.011063,42.601341 
z"/>
<path fill="#465FCF" opacity="1.000000" stroke="none" 
	d="
M8.412567,63.668541 
	C7.689280,64.379898 6.643205,65.155212 5.243162,65.923645 
	C5.956056,65.188683 7.022917,64.460594 8.412567,63.668541 
z"/>
<path fill="#455FD2" opacity="1.000000" stroke="none" 
	d="
M84.032379,21.024317 
	C82.500397,21.181784 80.968407,21.339249 79.227913,21.203777 
	C80.035027,20.952728 81.050652,20.994617 82.751068,21.010788 
	C83.634705,20.998154 83.833542,21.011234 84.032379,21.024317 
z"/>
<path fill="#465FCF" opacity="1.000000" stroke="none" 
	d="
M12.312881,66.983437 
	C12.820276,66.357399 13.645878,65.714630 14.805944,65.094162 
	C14.303968,65.733215 13.467527,66.349960 12.312881,66.983437 
z"/>
<path fill="#E8F2FE" opacity="1.000000" stroke="none" 
	d="
M45.874077,4.854200 
	C45.553371,5.390746 45.072979,5.687076 44.295509,5.967767 
	C44.570419,5.506079 45.142406,5.060033 45.874077,4.854200 
z"/>
<path fill="#435CCE" opacity="1.000000" stroke="none" 
	d="
M54.330910,79.011887 
	C54.494438,78.398232 54.966118,77.741570 55.776562,77.080597 
	C55.623241,77.707146 55.131153,78.338013 54.330910,79.011887 
z"/>
<path fill="#435CCE" opacity="1.000000" stroke="none" 
	d="
M51.284386,80.858444 
	C51.798779,80.354507 52.565758,79.671463 53.694588,79.009933 
	C53.216621,79.580750 52.376797,80.130043 51.284386,80.858444 
z"/>
<path fill="#455FD2" opacity="1.000000" stroke="none" 
	d="
M58.489700,13.838245 
	C57.924526,13.056293 57.500229,12.139816 57.125740,10.875422 
	C57.451897,10.837312 57.728249,11.147120 58.135170,12.001957 
	C58.459766,12.824774 58.653797,13.102560 58.847832,13.380346 
	C58.847832,13.380345 58.630573,13.703719 58.489700,13.838245 
z"/>
<path fill="#465FCF" opacity="1.000000" stroke="none" 
	d="
M15.429161,65.140022 
	C15.915907,64.937645 16.772352,64.712967 17.818157,64.741028 
	C17.271296,65.035088 16.535078,65.076408 15.429161,65.140022 
z"/>
<path fill="#4E63C6" opacity="1.000000" stroke="none" 
	d="
M84.230255,20.909586 
	C83.833542,21.011234 83.634705,20.998154 83.138176,20.957928 
	C83.394890,20.516378 83.949295,20.101971 84.764175,19.650108 
	C84.825821,20.006721 84.626976,20.400787 84.230255,20.909586 
z"/>
<path fill="#465FCF" opacity="1.000000" stroke="none" 
	d="
M9.740961,68.449020 
	C10.059366,68.000374 10.673122,67.491295 11.645313,66.989326 
	C11.347937,67.460487 10.692124,67.924538 9.740961,68.449020 
z"/>
<path fill="#455FD2" opacity="1.000000" stroke="none" 
	d="
M59.909718,18.119152 
	C59.340977,17.634289 58.772236,17.149426 58.313187,16.447094 
	C58.687397,16.454704 58.951916,16.679785 59.518520,17.230415 
	C59.820606,17.555969 60.037205,17.954945 60.004486,17.995340 
	C59.971771,18.035736 59.909718,18.119152 59.909718,18.119152 
z"/>
<path fill="#465FCF" opacity="1.000000" stroke="none" 
	d="
M18.160435,65.246933 
	C18.565092,65.185295 19.126717,65.379036 19.823683,65.849167 
	C19.411818,65.917809 18.864609,65.710060 18.160435,65.246933 
z"/>
<path fill="#455FD2" opacity="1.000000" stroke="none" 
	d="
M78.919678,20.654644 
	C78.468033,20.739697 77.856293,20.538559 77.089523,20.036890 
	C77.542854,19.947056 78.151215,20.157753 78.919678,20.654644 
z"/>
<path fill="#455FD2" opacity="1.000000" stroke="none" 
	d="
M62.995018,20.002480 
	C62.388809,19.810375 61.860268,19.537123 61.286503,18.954277 
	C61.623615,18.743929 62.005955,18.843176 62.748173,19.161579 
	C63.108051,19.380735 63.227295,19.758343 63.227295,19.758343 
	C63.227295,19.758343 63.072685,19.921335 62.995018,20.002480 
z"/>
<path fill="#E8F2FE" opacity="1.000000" stroke="none" 
	d="
M73.887192,18.575565 
	C73.984001,18.704958 73.500854,18.818048 73.257675,18.768759 
	C73.199249,18.370617 73.457878,18.279518 73.887192,18.575565 
z"/>
<path fill="#455FD2" opacity="1.000000" stroke="none" 
	d="
M61.290733,18.478382 
	C60.990150,18.634541 60.638935,18.576796 60.098721,18.319101 
	C59.909718,18.119152 59.971771,18.035736 60.251190,17.981697 
	C60.530609,17.927660 61.022720,17.882362 61.022720,17.882362 
	C61.022720,17.882362 61.240101,18.264481 61.290733,18.478382 
z"/>
<path fill="#E8F3FE" opacity="1.000000" stroke="none" 
	d="
M37.727036,17.025225 
	C37.860607,17.263670 37.704372,17.474150 37.234886,17.604399 
	C37.140427,17.368439 37.312286,17.192804 37.727036,17.025225 
z"/>
<path fill="#E8F3FE" opacity="1.000000" stroke="none" 
	d="
M35.875816,18.087416 
	C36.034222,18.390720 35.835003,18.630529 35.260406,18.767324 
	C35.146652,18.479843 35.357704,18.266380 35.875816,18.087416 
z"/>
<path fill="#E8F2FE" opacity="1.000000" stroke="none" 
	d="
M63.414543,19.748699 
	C63.227295,19.758343 63.108051,19.380735 63.044090,19.193344 
	C63.272625,19.019304 63.524483,19.127352 63.853474,19.502480 
	C63.971249,19.674864 63.601791,19.739054 63.414543,19.748699 
z"/>
<path fill="#465FCF" opacity="1.000000" stroke="none" 
	d="
M31.259928,64.918159 
	C31.312649,64.774742 31.591736,64.737869 31.928562,64.872192 
	C31.819633,65.037155 31.652962,65.030930 31.259928,64.918159 
z"/>
<path fill="#E8F3FE" opacity="1.000000" stroke="none" 
	d="
M33.973011,19.126331 
	C33.991894,19.332037 33.760254,19.573099 33.272377,19.833580 
	C33.251587,19.622561 33.487041,19.392124 33.973011,19.126331 
z"/>
<path fill="#E8F2FE" opacity="1.000000" stroke="none" 
	d="
M69.885818,19.080408 
	C70.109749,19.039053 69.978699,19.439962 69.914963,19.640965 
	C69.851234,19.841967 69.429810,19.820204 69.222763,19.779427 
	C69.151848,19.450005 69.367233,19.244377 69.885818,19.080408 
z"/>
<path fill="#E8F2FE" opacity="1.000000" stroke="none" 
	d="
M67.724052,20.122944 
	C67.719505,20.340368 67.261078,20.606962 66.605545,20.673794 
	C66.695679,20.373390 66.982925,20.272751 67.724052,20.122944 
z"/>
<path fill="#E8F2FE" opacity="1.000000" stroke="none" 
	d="
M60.858749,17.668114 
	C61.022720,17.882362 60.530609,17.927660 60.283905,17.941303 
	C60.037205,17.954945 59.820606,17.555969 59.756195,17.338230 
	C60.026119,17.231615 60.360451,17.342739 60.858749,17.668114 
z"/>
<path fill="#E8F2FE" opacity="1.000000" stroke="none" 
	d="
M58.853958,13.120302 
	C58.653797,13.102560 58.459766,12.824774 58.278122,12.285284 
	C58.480370,12.302472 58.670227,12.581366 58.853958,13.120302 
z"/>
<path fill="#4E63C6" opacity="1.000000" stroke="none" 
	d="
M90.338715,22.080517 
	C90.312546,21.841097 90.588722,21.537405 91.182770,21.199665 
	C91.214119,21.449160 90.927582,21.732702 90.338715,22.080517 
z"/>
<path fill="#F9FBFD" opacity="1.000000" stroke="none" 
	d="
M43.017433,22.911121 
	C43.017433,22.911121 43.167068,23.156256 43.579250,23.467791 
	C47.477783,25.291267 50.894154,25.819633 54.076702,23.061743 
	C54.076702,23.061743 54.012131,23.007591 54.295830,22.998547 
	C54.793537,22.709568 55.007549,22.429630 55.221561,22.149693 
	C55.221561,22.149693 55.094700,22.111872 55.461937,22.107494 
	C56.784145,22.210890 57.739113,22.318663 58.694080,22.426435 
	C58.694080,22.426435 58.959766,22.089054 58.947041,22.475124 
	C59.271648,22.950035 59.608986,23.038874 59.946320,23.127712 
	C59.946320,23.127712 59.963047,23.034685 60.128052,23.352543 
	C61.499199,24.437017 62.705341,25.203636 63.832634,26.354671 
	C63.139404,30.736610 64.164925,34.064377 67.688049,36.372074 
	C67.688049,36.372074 67.984627,36.304890 67.970337,36.569359 
	C68.316330,36.923637 68.676598,37.013447 69.036873,37.103256 
	C69.036873,37.103256 69.194756,37.249203 69.469475,37.479774 
	C70.135704,37.874851 70.527222,38.039352 70.918732,38.203854 
	C71.006493,39.214874 71.094261,40.225899 71.181007,42.019058 
	C71.209213,44.209644 71.238434,45.618095 71.267654,47.026546 
	C71.267654,47.026546 71.052528,47.403816 70.692734,47.650417 
	C69.846367,48.226517 69.359795,48.556015 68.873215,48.885513 
	C68.873215,48.885509 69.002678,48.935459 68.603882,48.941628 
	C63.369549,51.654350 64.000999,56.681732 63.069359,61.045551 
	C63.069359,61.045551 63.026077,60.994602 62.759113,61.041908 
	C62.272293,61.356415 62.052433,61.623619 61.832577,61.890820 
	C61.832577,61.890820 61.931950,61.914989 61.625229,61.892632 
	C60.855537,62.229107 60.392563,62.587936 59.929588,62.946770 
	C59.929588,62.946770 59.995232,62.995541 59.607773,62.998936 
	C57.451546,62.857872 55.462692,63.183590 53.956375,62.478474 
	C49.868557,60.564934 46.142643,60.166294 42.620865,63.479313 
	C42.620865,63.479313 42.669476,63.562233 42.281174,63.684471 
	C40.940071,63.840214 39.987270,63.873718 39.034466,63.907227 
	C39.034466,63.907227 39.016468,63.988995 38.906166,63.711029 
	C37.531963,62.951714 36.268063,62.470367 35.004162,61.989021 
	C34.608932,60.506145 34.445770,58.906609 33.771008,57.564247 
	C32.285820,54.609638 31.230293,50.587425 28.755684,49.165661 
	C24.132267,46.509315 25.572794,43.225754 26.247643,39.127457 
	C27.966385,37.368786 29.476011,36.202850 30.985638,35.036911 
	C30.985638,35.036911 31.028673,35.026443 31.355526,34.850525 
	C32.482357,31.466311 33.282330,28.258018 34.082306,25.049726 
	C34.082306,25.049726 34.023373,25.005056 34.325169,24.990314 
	C34.908237,24.695314 35.189514,24.415052 35.470787,24.134792 
	C35.939648,24.033876 36.408508,23.932961 37.366261,23.511992 
	C39.575912,23.098333 41.296673,23.004726 43.017433,22.911121 
z"/>
<path fill="#E6F1FD" opacity="1.000000" stroke="none" 
	d="
M19.888813,55.790104 
	C22.005100,55.031624 23.904587,54.026596 25.686611,54.203663 
	C26.463367,54.280846 27.877625,57.226070 27.445164,58.082012 
	C26.740650,59.476410 24.845348,60.913807 23.298025,61.109169 
	C19.598671,61.576241 20.025995,58.350082 19.888813,55.790104 
z"/>
<path fill="#E4EFFE" opacity="1.000000" stroke="none" 
	d="
M26.053253,25.584660 
	C28.368961,27.926184 28.246469,30.188005 26.006081,31.720585 
	C24.957436,32.437931 22.605536,32.477348 21.642801,31.756926 
	C20.626982,30.996788 19.825750,27.946245 20.211473,27.667307 
	C21.792152,26.524229 23.861357,26.056702 26.053253,25.584660 
z"/>
<path fill="#3655E3" opacity="1.000000" stroke="none" 
	d="
M33.736050,25.080742 
	C33.282330,28.258018 32.482357,31.466311 31.358875,34.828632 
	C31.820177,31.692360 32.604984,28.402058 33.736050,25.080742 
z"/>
<path fill="#3655E3" opacity="1.000000" stroke="none" 
	d="
M30.617817,35.024284 
	C29.476011,36.202850 27.966385,37.368786 26.217146,38.763268 
	C27.401688,37.665096 28.825842,36.338375 30.617817,35.024284 
z"/>
<path fill="#465FD4" opacity="1.000000" stroke="none" 
	d="
M42.943920,22.561291 
	C41.296673,23.004726 39.575912,23.098333 37.521114,23.322227 
	C37.149258,23.213274 37.111435,22.974028 37.045090,22.372696 
	C38.967846,22.077560 40.919128,22.144510 42.943920,22.561291 
z"/>
<path fill="#405BD5" opacity="1.000000" stroke="none" 
	d="
M35.193977,62.262917 
	C36.268063,62.470367 37.531963,62.951714 38.937790,63.683598 
	C37.847740,63.468365 36.615765,63.002590 35.193977,62.262917 
z"/>
<path fill="#405BD5" opacity="1.000000" stroke="none" 
	d="
M39.182358,64.179398 
	C39.987270,63.873718 40.940071,63.840214 42.233116,63.684158 
	C42.267460,64.035141 41.961563,64.508675 41.342514,65.058105 
	C40.462990,64.906517 39.896622,64.679047 39.182358,64.179398 
z"/>
<path fill="#3655E3" opacity="1.000000" stroke="none" 
	d="
M35.167717,24.182083 
	C35.189514,24.415052 34.908237,24.695314 34.327728,25.027201 
	C34.307213,24.795675 34.585926,24.512524 35.167717,24.182083 
z"/>
<path fill="#E3EFFE" opacity="1.000000" stroke="none" 
	d="
M44.007362,71.729080 
	C45.396790,69.915100 46.600151,67.830856 48.297325,67.286682 
	C49.484505,66.906013 52.742516,68.848717 52.660065,69.376022 
	C52.342846,71.404747 51.548916,73.973289 50.020943,75.069084 
	C46.940693,77.278107 45.670879,73.920868 44.007362,71.729080 
z"/>
<path fill="#E6F1FE" opacity="1.000000" stroke="none" 
	d="
M70.062454,55.015682 
	C70.356255,54.900684 70.599098,54.717964 71.246101,54.211807 
	C76.626602,53.381824 77.547081,54.456322 76.822327,59.934090 
	C76.822327,59.934090 76.924744,59.926998 76.657997,59.971600 
	C76.204910,60.306267 76.018578,60.596336 75.832237,60.886402 
	C75.832237,60.886402 75.923637,60.905693 75.585907,60.898636 
	C74.837593,61.035473 74.427010,61.179371 74.016426,61.323265 
	C72.705360,60.757053 71.394302,60.190842 69.944664,58.925659 
	C69.891548,57.156353 69.977005,56.086018 70.062454,55.015682 
z"/>
<path fill="#405BD5" opacity="1.000000" stroke="none" 
	d="
M43.041748,63.640396 
	C46.142643,60.166294 49.868557,60.564934 53.956375,62.478474 
	C55.462692,63.183590 57.451546,62.857872 59.587662,62.963333 
	C58.603474,63.880657 56.322403,65.885086 56.040630,65.635185 
	C52.168060,62.200710 47.784740,63.365234 43.041748,63.640396 
z"/>
<path fill="#405BD5" opacity="1.000000" stroke="none" 
	d="
M63.446224,60.990379 
	C64.000999,56.681732 63.369549,51.654350 68.549393,48.898670 
	C67.203499,52.878094 65.513290,56.906647 63.446224,60.990379 
z"/>
<path fill="#4762DE" opacity="1.000000" stroke="none" 
	d="
M77.148849,59.710461 
	C77.547081,54.456322 76.626602,53.381824 71.358421,54.010933 
	C72.704971,53.582184 74.394318,53.098595 76.083672,52.615005 
	C76.547569,54.905613 77.011475,57.196220 77.148849,59.710461 
z"/>
<path fill="#405BD5" opacity="1.000000" stroke="none" 
	d="
M71.562088,46.968555 
	C71.238434,45.618095 71.209213,44.209644 71.274979,42.387886 
	C71.909927,42.762093 72.449898,43.549606 72.993835,44.665127 
	C72.617386,45.632278 72.236954,46.271420 71.562088,46.968555 
z"/>
<path fill="#4762DE" opacity="1.000000" stroke="none" 
	d="
M69.717651,55.063911 
	C69.977005,56.086018 69.891548,57.156353 69.817734,58.631145 
	C67.288956,58.005684 67.359947,56.671890 69.717651,55.063911 
z"/>
<path fill="#405BD5" opacity="1.000000" stroke="none" 
	d="
M69.198441,48.912361 
	C69.359795,48.556015 69.846367,48.226517 70.641037,47.861320 
	C70.473984,48.196815 69.998817,48.568008 69.198441,48.912361 
z"/>
<path fill="#4762DE" opacity="1.000000" stroke="none" 
	d="
M74.208176,61.498627 
	C74.427010,61.179371 74.837593,61.035473 75.573029,60.853737 
	C75.398560,61.101929 74.899246,61.387962 74.208176,61.498627 
z"/>
<path fill="#405BD5" opacity="1.000000" stroke="none" 
	d="
M60.248886,62.952881 
	C60.392563,62.587936 60.855537,62.229107 61.620922,61.841679 
	C61.471619,62.195053 61.019901,62.577023 60.248886,62.952881 
z"/>
<path fill="#405BD5" opacity="1.000000" stroke="none" 
	d="
M62.089119,61.850288 
	C62.052433,61.623619 62.272293,61.356415 62.761227,61.075264 
	C62.802090,61.310799 62.573875,61.560276 62.089119,61.850288 
z"/>
<path fill="#4762DE" opacity="1.000000" stroke="none" 
	d="
M76.098007,60.818428 
	C76.018578,60.596336 76.204910,60.306267 76.639328,59.923782 
	C76.712860,60.137730 76.538322,60.444096 76.098007,60.818428 
z"/>
<path fill="#E5F0FC" opacity="1.000000" stroke="none" 
	d="
M75.205673,32.229210 
	C73.171928,31.372164 71.221413,30.584602 69.893051,29.200113 
	C69.542755,28.835022 70.799026,25.969408 71.890083,25.446415 
	C73.012695,24.908297 76.075996,25.674316 76.134003,26.138874 
	C76.374146,28.062263 75.797951,30.087574 75.205673,32.229210 
z"/>
<path fill="#405BD5" opacity="1.000000" stroke="none" 
	d="
M67.681412,35.992592 
	C64.164925,34.064377 63.139404,30.736610 63.895752,26.328365 
	C64.037727,25.917641 64.155838,25.848570 64.155838,25.848570 
	C65.328812,29.103418 66.501793,32.358265 67.681412,35.992592 
z"/>
<path fill="#465FD4" opacity="1.000000" stroke="none" 
	d="
M64.082672,25.551392 
	C64.155838,25.848570 64.037727,25.917641 63.974609,25.943949 
	C62.705341,25.203636 61.499199,24.437017 60.090149,23.380772 
	C60.656731,23.068514 61.426220,23.045879 62.579334,23.036165 
	C63.311813,23.784126 63.660660,24.519169 64.082672,25.551392 
z"/>
<path fill="#405BD5" opacity="1.000000" stroke="none" 
	d="
M70.766739,37.908348 
	C70.527222,38.039352 70.135704,37.874851 69.568359,37.437592 
	C69.799927,37.314167 70.207336,37.463505 70.766739,37.908348 
z"/>
<path fill="#405BD5" opacity="1.000000" stroke="none" 
	d="
M68.891724,36.855705 
	C68.676598,37.013447 68.316330,36.923637 67.819168,36.585056 
	C68.037056,36.426907 68.391815,36.517529 68.891724,36.855705 
z"/>
<path fill="#E6F2FD" opacity="1.000000" stroke="none" 
	d="
M48.049156,11.131792 
	C51.773415,11.727654 53.572128,13.515252 51.856853,16.890743 
	C51.339714,17.908424 49.440132,18.856571 48.284740,18.739729 
	C47.118965,18.621838 45.080185,16.964796 45.197968,16.293219 
	C45.511932,14.503001 46.779675,12.880058 48.049156,11.131792 
z"/>
<path fill="#465FD4" opacity="1.000000" stroke="none" 
	d="
M53.671597,23.037792 
	C50.894154,25.819633 47.477783,25.291267 43.721863,23.484592 
	C46.723694,23.131186 49.995094,23.072514 53.671597,23.037792 
z"/>
<path fill="#465FD4" opacity="1.000000" stroke="none" 
	d="
M58.628815,22.077759 
	C57.739113,22.318663 56.784145,22.210890 55.464993,22.173615 
	C56.255054,22.072433 57.409306,21.900757 58.628815,22.077759 
z"/>
<path fill="#465FD4" opacity="1.000000" stroke="none" 
	d="
M54.954380,22.200954 
	C55.007549,22.429630 54.793537,22.709568 54.309395,23.038439 
	C54.255245,22.808989 54.471222,22.530602 54.954380,22.200954 
z"/>
<path fill="#465FD4" opacity="1.000000" stroke="none" 
	d="
M59.824043,22.876190 
	C59.608986,23.038874 59.271648,22.950035 58.800533,22.632088 
	C59.011757,22.476875 59.356758,22.550770 59.824043,22.876190 
z"/>
</svg>